<svg xmlns="http://www.w3.org/2000/svg" xmlns:xlink="http://www.w3.org/1999/xlink" width="50" zoomAndPan="magnify" viewBox="0 0 37.5 37.499999" height="50" preserveAspectRatio="xMidYMid meet" version="1.0"><defs><clipPath id="7c86ad4c2c"><path d="M 0 0 L 37.007812 0 L 37.007812 37.007812 L 0 37.007812 Z M 0 0 " clip-rule="nonzero"/></clipPath></defs><g clip-path="url(#7c86ad4c2c)"><path fill="#ffffff" d="M 33.664062 12.558594 L 30.269531 11.023438 C 29.378906 10.625 28.453125 10.476562 27.484375 10.574219 C 26.632812 8.746094 25.515625 7.09375 24.140625 5.625 C 21.550781 2.839844 18.320312 0.933594 15.042969 0.265625 C 11.640625 -0.4375 8.578125 0.269531 6.425781 2.257812 L 2.769531 5.632812 C 1.066406 7.199219 0.117188 9.40625 0.015625 12.011719 C -0.128906 15.84375 1.65625 20.144531 4.789062 23.515625 C 7.378906 26.300781 10.609375 28.203125 13.882812 28.875 C 14.324219 28.964844 14.757812 29.03125 15.183594 29.074219 C 15.308594 32.605469 16.667969 35.191406 18.988281 36.238281 L 22.386719 37.773438 C 23.101562 38.09375 23.847656 38.25 24.632812 38.246094 C 28.492188 38.246094 32.949219 34.457031 35.582031 28.574219 C 38.742188 21.507812 37.898438 14.46875 33.664062 12.558594 Z M 31.695312 28.0625 L 33.042969 28.667969 C 32.671875 29.402344 32.253906 30.105469 31.792969 30.785156 L 30.476562 30.191406 C 30.921875 29.503906 31.328125 28.792969 31.695312 28.0625 Z M 32.617188 26.003906 C 32.917969 25.238281 33.175781 24.460938 33.390625 23.671875 L 34.707031 24.265625 C 34.507812 25.0625 34.257812 25.84375 33.960938 26.609375 Z M 33.867188 21.414062 C 34.003906 20.558594 34.074219 19.695312 34.082031 18.828125 L 35.203125 19.335938 C 35.261719 20.222656 35.238281 21.105469 35.128906 21.984375 Z M 34.554688 16.570312 L 33.859375 16.253906 C 33.789062 15.894531 33.703125 15.542969 33.597656 15.191406 C 34.011719 15.585938 34.328125 16.046875 34.558594 16.570312 Z M 12.5625 2.257812 C 13.25 2.261719 13.929688 2.332031 14.601562 2.472656 C 17.421875 3.050781 20.230469 4.71875 22.503906 7.164062 C 25.238281 10.105469 26.796875 13.796875 26.675781 17.039062 C 26.597656 19.027344 25.898438 20.6875 24.648438 21.839844 C 23.042969 23.324219 20.679688 23.835938 17.992188 23.285156 C 15.171875 22.707031 12.363281 21.039062 10.089844 18.59375 C 7.355469 15.652344 5.796875 11.960938 5.917969 8.722656 C 5.992188 6.730469 6.695312 5.070312 7.945312 3.917969 C 9.128906 2.820312 10.726562 2.257812 12.5625 2.257812 Z M 18.695312 25.679688 C 19.144531 25.730469 19.59375 25.757812 20.042969 25.757812 C 20.136719 25.757812 20.222656 25.757812 20.316406 25.753906 C 19.453125 26.332031 18.503906 26.679688 17.476562 26.804688 Z M 9.230469 20.933594 C 9.890625 21.566406 10.585938 22.148438 11.328125 22.683594 L 9.363281 24.496094 C 8.605469 23.980469 7.898438 23.410156 7.234375 22.78125 Z M 5.027344 15.007812 L 3.121094 16.769531 C 2.742188 15.8125 2.484375 14.824219 2.347656 13.804688 L 4.0625 12.222656 C 4.300781 13.179688 4.621094 14.109375 5.027344 15.007812 Z M 3.730469 7.886719 C 3.703125 8.132812 3.683594 8.378906 3.675781 8.636719 C 3.664062 8.929688 3.664062 9.222656 3.675781 9.515625 L 2.441406 10.65625 C 2.644531 9.628906 3.074219 8.703125 3.730469 7.886719 Z M 4.140625 18.886719 L 6.113281 17.066406 C 6.59375 17.84375 7.121094 18.582031 7.703125 19.28125 L 5.695312 21.132812 C 5.117188 20.425781 4.601562 19.675781 4.140625 18.886719 Z M 11.402344 25.667969 L 13.296875 23.921875 C 14.164062 24.394531 15.070312 24.785156 16.011719 25.09375 L 14.320312 26.660156 C 13.308594 26.445312 12.335938 26.117188 11.402344 25.667969 Z M 19.914062 34.179688 C 18.449219 33.519531 17.550781 31.640625 17.433594 29.082031 C 19.398438 28.890625 21.140625 28.144531 22.511719 26.882812 L 26.167969 23.507812 C 27.867188 21.9375 28.820312 19.730469 28.917969 17.125 C 28.960938 15.660156 28.765625 14.222656 28.335938 12.820312 C 28.6875 12.847656 29.023438 12.933594 29.347656 13.078125 C 30.707031 13.695312 31.574219 15.3125 31.789062 17.632812 C 32.023438 20.1875 31.4375 23.199219 30.132812 26.117188 C 28.828125 29.035156 26.976562 31.476562 24.917969 32.996094 C 23.046875 34.375 21.269531 34.796875 19.910156 34.183594 Z M 24.308594 35.976562 C 24.640625 35.824219 24.960938 35.652344 25.269531 35.464844 L 25.96875 35.78125 C 25.429688 35.957031 24.875 36.023438 24.308594 35.980469 Z M 28.457031 34.429688 L 27.332031 33.925781 C 27.972656 33.34375 28.570312 32.71875 29.117188 32.050781 L 30.375 32.617188 C 29.792969 33.285156 29.152344 33.890625 28.453125 34.433594 Z M 28.457031 34.429688 " fill-opacity="1" fill-rule="nonzero"/></g></svg>